<svg width="58" height="58" viewBox="0 0 58 58" xmlns="http://www.w3.org/2000/svg"><title>294 - Profile (Flat)</title><g fill="none" fill-rule="evenodd"><path d="M58 29c0 16.017-12.984 29-29 29S0 45.017 0 29C0 12.984 12.984 0 29 0s29 12.984 29 29" fill="#25AE88"/><path d="M52.932 45.376C52.275 38.986 46.875 34 40.312 34h-5.947C33.61 34 33 33.39 33 32.635v-.645c0-.583.38-1.082.925-1.287C39.73 28.52 43.703 19 42.895 12.27 42.135 5.92 36.97.8 30.615.09 30.1.033 29.586.005 29.08.002h-.05C21.286-.018 15 6.257 15 14c0 6.024 3.807 14.755 9.145 16.73.523.192.855.712.855 1.27v.635C25 33.39 24.39 34 23.635 34H17.69c-6.566 0-11.965 4.985-12.622 11.376C10.293 52.998 19.06 58 29 58c9.94 0 18.707-5.002 23.932-12.624" fill="#FCCF9D"/><path d="M33.492 6.61c3.715 1.022 7.213 3.307 9.453 6.323-.016-.222-.023-.448-.05-.663C42.135 5.92 36.97.8 30.615.09 30.1.033 29.586.005 29.08.002h-.05c-6.92-.016-12.66 4.994-13.807 11.58h.004c.18.253.354.508.546.75.07-.086.14-.172.212-.257 2-2.38 5.34-2.93 8.183-1.672.866.384 1.824.597 2.832.597 2.942 0 5.456-1.817 6.492-4.39" fill="#6B5B4B"/><path d="M52.932 45.376C52.275 38.986 46.875 34 40.312 34H37l-8 8-8-8h-3.31c-6.566 0-11.965 4.985-12.622 11.376C10.293 52.998 19.06 58 29 58c9.94 0 18.707-5.002 23.932-12.624" fill="#556080"/><path d="M43 54.392c.685-.38 1.35-.788 2-1.22V47h-2v7.392m-28 0V47h-2v6.172c.65.432 1.315.84 2 1.22" fill="#424A60"/></g></svg>