<svg width="58" height="58" viewBox="0 0 58 58" xmlns="http://www.w3.org/2000/svg"><title>293 - Profile (Flat)</title><g fill="none" fill-rule="evenodd"><path d="M58 29c0 16.017-12.984 29-29 29S0 45.017 0 29C0 12.984 12.984 0 29 0s29 12.984 29 29" fill="#F86363"/><path d="M52.932 45.376C52.275 38.986 46.875 34 40.312 34h-5.947C33.61 34 33 33.39 33 32.635v-.645c0-.583.38-1.082.925-1.287C39.73 28.52 43.703 19 42.895 12.27 42.135 5.92 36.97.8 30.615.09 30.1.033 29.586.005 29.08.002h-.05C21.286-.018 15 6.257 15 14c0 6.024 3.807 14.755 9.145 16.73.523.192.855.712.855 1.27v.635C25 33.39 24.39 34 23.635 34H17.69c-6.565 0-11.965 4.985-12.622 11.376C10.293 52.998 19.06 58 29 58c9.94 0 18.707-5.002 23.932-12.624" fill="#F8B563"/><path d="M33.492 6.61c3.715 1.022 7.213 3.307 9.453 6.323-.016-.222-.023-.448-.05-.663C42.135 5.92 36.97.8 30.615.09 30.1.033 29.586.005 29.08.002h-.05c-6.92-.016-12.66 4.994-13.807 11.58h.004c.18.253.354.508.546.75.07-.086.14-.172.212-.257 2-2.38 5.34-2.93 8.183-1.672.866.384 1.824.597 2.832.597 2.942 0 5.456-1.817 6.492-4.39m.433 24.093c-.546.205-.925.704-.925 1.287v.645c0 .754.61 1.365 1.365 1.365h5.946c.925 0 1.824.104 2.69.292V14h-.01c.013 6.24-3.753 14.706-9.064 16.703M17.69 34h5.945C24.39 34 25 33.39 25 32.635V32c0-.558-.332-1.078-.855-1.27C18.807 28.754 15 20.023 15 14v20.292c.867-.188 1.766-.292 2.69-.292" fill="#F8E713"/><path d="M38 40c-3.96 0-7.382 2.322-9 5.67-1.618-3.348-5.04-5.67-9-5.67-.553 0-1 .447-1 1 0 .553.447 1 1 1 4.41 0 8 3.59 8 8v3h2v-3c0-4.41 3.59-8 8-8 .553 0 1-.447 1-1 0-.553-.447-1-1-1" fill="#D39450"/><path d="M52.932 45.376c-.383-3.726-2.385-6.964-5.282-9.025L29 53 10.35 36.35c-2.897 2.062-4.9 5.3-5.282 9.026C10.293 52.998 19.06 58 29 58c9.94 0 18.707-5.002 23.932-12.624" fill="#25AE88"/><path d="M43 47v7.392c.685-.38 1.35-.788 2-1.22V47h-2m-30 6.172c.65.432 1.315.84 2 1.22V47h-2v6.172" fill="#229974"/></g></svg>