<svg width="53" height="53" viewBox="0 0 53 53" xmlns="http://www.w3.org/2000/svg"><title>295 - Profile (Flat)</title><g fill="none" fill-rule="evenodd"><path d="M18.612 41.552l-7.907 4.314c-.464.253-.88.563-1.27.903C14.048 50.653 20 53 26.5 53c6.454 0 12.367-2.31 16.964-6.144-.424-.358-.884-.68-1.394-.935l-8.467-4.23c-1.094-.548-1.785-1.666-1.785-2.89v-3.32c.238-.27.51-.62.8-1.03 1.155-1.63 2.028-3.424 2.633-5.305 1.087-.335 1.887-1.338 1.887-2.53V23.07c0-.78-.346-1.478-.886-1.965V15.98S37.304 8 26.5 8s-9.75 7.978-9.75 7.978v5.126c-.54.487-.886 1.184-.886 1.964v3.546c0 .934.49 1.756 1.225 2.23.884 3.858 3.204 6.634 3.204 6.634v3.24c0 1.18-.645 2.27-1.683 2.834" fill="#E8EDEE"/><path d="M26.953.004C12.32-.246.253 11.414.003 26.047-.137 34.344 3.56 41.8 9.45 46.76c.385-.336.798-.644 1.257-.894l7.907-4.314c1.038-.565 1.683-1.653 1.683-2.835v-3.24s-2.32-2.775-3.206-6.632c-.734-.475-1.225-1.297-1.225-2.23v-3.547c0-.78.346-1.477.886-1.964v-5.126S15.698 8 26.5 8s9.75 7.978 9.75 7.978v5.126c.54.487.886 1.184.886 1.964v3.546c0 1.192-.8 2.195-1.885 2.53-.603 1.88-1.476 3.674-2.63 5.304-.29.41-.563.76-.8 1.03V38.8c0 1.223.69 2.34 1.784 2.888l8.467 4.233c.51.257.968.577 1.39.934 5.71-4.763 9.4-11.882 9.537-19.9.25-14.633-11.41-26.7-26.043-26.95" fill="#556080"/></g></svg>